<svg id="Camada_1" data-name="Camada 1" xmlns="http://www.w3.org/2000/svg" xmlns:xlink="http://www.w3.org/1999/xlink" viewBox="0 0 94.26 18.86"><defs><style>.cls-1{fill:url(#Gradiente_sem_nome_4);}.cls-2{fill:url(#Gradiente_sem_nome_4-2);}.cls-3{fill:url(#Gradiente_sem_nome_4-3);}.cls-4{fill:url(#Gradiente_sem_nome_4-4);}.cls-5{fill:url(#Gradiente_sem_nome_4-5);}.cls-6{fill:url(#Gradiente_sem_nome_4-6);}.cls-7{fill:url(#Gradiente_sem_nome_4-7);}.cls-8{fill:url(#Gradiente_sem_nome_4-8);}</style><linearGradient id="Gradiente_sem_nome_4" x1="-12.87" y1="13.8" x2="93.98" y2="-24.5" gradientUnits="userSpaceOnUse"><stop offset="0" stop-color="#ffef37"/><stop offset="1" stop-color="#e93f3a"/></linearGradient><linearGradient id="Gradiente_sem_nome_4-2" x1="-10.74" y1="19.74" x2="96.11" y2="-18.56" xlink:href="#Gradiente_sem_nome_4"/><linearGradient id="Gradiente_sem_nome_4-3" x1="-9.39" y1="23.51" x2="97.46" y2="-14.79" xlink:href="#Gradiente_sem_nome_4"/><linearGradient id="Gradiente_sem_nome_4-4" x1="-8.63" y1="25.64" x2="98.22" y2="-12.66" xlink:href="#Gradiente_sem_nome_4"/><linearGradient id="Gradiente_sem_nome_4-5" x1="-6.82" y1="30.68" x2="100.03" y2="-7.61" xlink:href="#Gradiente_sem_nome_4"/><linearGradient id="Gradiente_sem_nome_4-6" x1="-5.58" y1="34.15" x2="101.28" y2="-4.15" xlink:href="#Gradiente_sem_nome_4"/><linearGradient id="Gradiente_sem_nome_4-7" x1="-3.98" y1="38.61" x2="102.87" y2="0.31" xlink:href="#Gradiente_sem_nome_4"/><linearGradient id="Gradiente_sem_nome_4-8" x1="-1.94" y1="44.28" x2="104.91" y2="5.98" xlink:href="#Gradiente_sem_nome_4"/></defs><path class="cls-1" d="M0,3.11V.57H12V3.11H7.49v12h-3v-12Z" transform="translate(0 -0.57)"/><path class="cls-2" d="M17.25,15.33a5.87,5.87,0,0,1-2.9-.68,4.61,4.61,0,0,1-1.86-2,6.37,6.37,0,0,1-.66-3,6.29,6.29,0,0,1,.66-3,4.85,4.85,0,0,1,1.84-2,5.39,5.39,0,0,1,2.8-.71,5.78,5.78,0,0,1,2,.35,4.57,4.57,0,0,1,1.63,1,4.65,4.65,0,0,1,1.09,1.74,6.86,6.86,0,0,1,.39,2.42v.84H13V8.56h6.37a2.32,2.32,0,0,0-.29-1.16,2.07,2.07,0,0,0-.79-.79,2.26,2.26,0,0,0-1.15-.29A2.4,2.4,0,0,0,16,6.64a2.23,2.23,0,0,0-.82.85,2.43,2.43,0,0,0-.31,1.17v1.78a3,3,0,0,0,.3,1.4,2.22,2.22,0,0,0,.86.91,2.63,2.63,0,0,0,1.32.32,3,3,0,0,0,.92-.14,2,2,0,0,0,.72-.43,1.8,1.8,0,0,0,.45-.69l2.8.18a3.8,3.8,0,0,1-.87,1.76,4.41,4.41,0,0,1-1.69,1.17A6.48,6.48,0,0,1,17.25,15.33Z" transform="translate(0 -0.57)"/><path class="cls-3" d="M29.16,15.33a5.65,5.65,0,0,1-2.89-.71,4.78,4.78,0,0,1-1.84-2,6.38,6.38,0,0,1-.64-2.93,6.43,6.43,0,0,1,.64-2.94,4.93,4.93,0,0,1,1.86-2,5.44,5.44,0,0,1,2.85-.72,5.75,5.75,0,0,1,2.5.52A4.13,4.13,0,0,1,34,8.24H31.17a2.18,2.18,0,0,0-.64-1.31,1.8,1.8,0,0,0-1.34-.51A2,2,0,0,0,28,6.81a2.48,2.48,0,0,0-.81,1.1,4.75,4.75,0,0,0-.29,1.75,4.91,4.91,0,0,0,.29,1.78A2.42,2.42,0,0,0,28,12.55a2.11,2.11,0,0,0,2.16.17,1.78,1.78,0,0,0,.69-.62,2.17,2.17,0,0,0,.36-1H34a4.6,4.6,0,0,1-.68,2.2,4.21,4.21,0,0,1-1.67,1.48A5.64,5.64,0,0,1,29.16,15.33Z" transform="translate(0 -0.57)"/><path class="cls-4" d="M39,8.81v6.31H36V.57h2.94V6.13H39a3.11,3.11,0,0,1,1.2-1.51,3.62,3.62,0,0,1,2.06-.56,3.89,3.89,0,0,1,2,.5A3.46,3.46,0,0,1,45.6,6a4.86,4.86,0,0,1,.47,2.2v7H43V8.71a2.25,2.25,0,0,0-.51-1.57,1.86,1.86,0,0,0-1.44-.56A2.28,2.28,0,0,0,40,6.84a1.9,1.9,0,0,0-.74.77A2.72,2.72,0,0,0,39,8.81Z" transform="translate(0 -0.57)"/><path class="cls-5" d="M53.13,15.12V.57H59a6.51,6.51,0,0,1,2.67.48A3.39,3.39,0,0,1,63.79,4.3a3.13,3.13,0,0,1-.35,1.5,3,3,0,0,1-.93,1,3.88,3.88,0,0,1-1.35.57v.15A3.3,3.3,0,0,1,63.9,9.25a3.62,3.62,0,0,1,.45,1.85,3.78,3.78,0,0,1-.57,2.06,3.9,3.9,0,0,1-1.68,1.43,6.45,6.45,0,0,1-2.75.53Zm3.08-2.52h2.5a2.9,2.9,0,0,0,1.88-.49,1.65,1.65,0,0,0,.59-1.32,2,2,0,0,0-.29-1.07A2.09,2.09,0,0,0,60.06,9a2.94,2.94,0,0,0-1.27-.26H56.21Zm0-5.94h2.28a2.83,2.83,0,0,0,1.12-.22,2,2,0,0,0,.78-.64,1.72,1.72,0,0,0,.29-1,1.6,1.6,0,0,0-.56-1.27,2.33,2.33,0,0,0-1.58-.48H56.21Z" transform="translate(0 -0.57)"/><path class="cls-6" d="M69.32.57V15.12h-3V.57Z" transform="translate(0 -0.57)"/><path class="cls-7" d="M76.68,15.33a5.7,5.7,0,0,1-2.87-.7,4.91,4.91,0,0,1-1.85-2,6.32,6.32,0,0,1-.65-3A6.29,6.29,0,0,1,72,6.75a4.78,4.78,0,0,1,1.85-2,5.6,5.6,0,0,1,2.87-.71,5.53,5.53,0,0,1,2.85.71,4.68,4.68,0,0,1,1.86,2,6.29,6.29,0,0,1,.66,2.95,6.32,6.32,0,0,1-.66,3,4.8,4.8,0,0,1-1.86,2A5.62,5.62,0,0,1,76.68,15.33Zm0-2.35A1.92,1.92,0,0,0,78,12.56a2.69,2.69,0,0,0,.76-1.18A5.23,5.23,0,0,0,79,9.68,5.28,5.28,0,0,0,78.71,8,2.65,2.65,0,0,0,78,6.81a1.88,1.88,0,0,0-1.26-.44,1.93,1.93,0,0,0-1.28.44A2.58,2.58,0,0,0,74.64,8a5.28,5.28,0,0,0-.26,1.7,5.23,5.23,0,0,0,.26,1.7,2.62,2.62,0,0,0,.77,1.18A2,2,0,0,0,76.69,13Z" transform="translate(0 -0.57)"/><path class="cls-8" d="M88.93,19.43a7,7,0,0,1-2.52-.4,4.3,4.3,0,0,1-1.67-1.09,3.3,3.3,0,0,1-.8-1.55l2.8-.37a1.81,1.81,0,0,0,1.14,1.06,3.06,3.06,0,0,0,1.12.18,2.65,2.65,0,0,0,1.63-.48,1.86,1.86,0,0,0,.64-1.6v-2h-.13a2.81,2.81,0,0,1-.59.86,3,3,0,0,1-1,.66A3.9,3.9,0,0,1,88,15a4.43,4.43,0,0,1-2.23-.57,4.08,4.08,0,0,1-1.6-1.75,6.63,6.63,0,0,1-.59-3,7.11,7.11,0,0,1,.6-3.1,4.29,4.29,0,0,1,1.61-1.86A4.17,4.17,0,0,1,88,4.06a3.33,3.33,0,0,1,1.53.32,3,3,0,0,1,1,.76,4,4,0,0,1,.59.9h.12V4.21h3v11a3.87,3.87,0,0,1-.68,2.33A4,4,0,0,1,91.69,19,7.6,7.6,0,0,1,88.93,19.43ZM89,12.69a2,2,0,0,0,1.24-.37A2.24,2.24,0,0,0,91,11.27a4.5,4.5,0,0,0,.28-1.64A4.68,4.68,0,0,0,91,8a2.39,2.39,0,0,0-.79-1.1,2.15,2.15,0,0,0-2.5,0A2.43,2.43,0,0,0,87,8a4.93,4.93,0,0,0-.26,1.65A4.68,4.68,0,0,0,87,11.26a2.44,2.44,0,0,0,.77,1.06A2.16,2.16,0,0,0,89,12.69Z" transform="translate(0 -0.57)"/></svg>